<svg width="75" height="26" viewBox="0 0 75 26" fill="none" xmlns="http://www.w3.org/2000/svg">
<g clip-path="url(#clip0_153_390)">
<path d="M58.7318 5.03125C58.3008 5.03125 57.8795 5.15746 57.5212 5.39393C57.1628 5.63039 56.8835 5.96649 56.7186 6.35972C56.5537 6.75295 56.5105 7.18564 56.5946 7.60309C56.6787 8.02054 56.8862 8.40399 57.191 8.70495C57.4957 9.00592 57.884 9.21088 58.3067 9.29391C58.7294 9.37695 59.1675 9.33433 59.5657 9.17145C59.9638 9.00857 60.3042 8.73274 60.5436 8.37885C60.783 8.02495 60.9108 7.60888 60.9108 7.18326C60.9102 6.61271 60.6804 6.06571 60.2719 5.66227C59.8634 5.25883 59.3095 5.03189 58.7318 5.03125Z" fill="#1F6837"/>
<path d="M70.71 0.5H53.976C52.8384 0.5 51.7473 0.946273 50.9428 1.74067C50.1382 2.53507 49.6861 3.61253 49.6859 4.73608V21.2631C49.6861 22.3867 50.1382 23.4641 50.9428 24.2585C51.7473 25.0529 52.8384 25.4992 53.976 25.4992H70.71C71.2733 25.4993 71.8312 25.3898 72.3517 25.177C72.8722 24.9641 73.3451 24.6521 73.7435 24.2588C74.1419 23.8654 74.4579 23.3984 74.6735 22.8844C74.8891 22.3704 75.0001 21.8195 75.0001 21.2631V4.73608C75.0001 4.17972 74.8891 3.62881 74.6735 3.11482C74.4579 2.60082 74.1419 2.1338 73.7435 1.74043C73.3451 1.34707 72.8722 1.03506 72.3517 0.82222C71.8312 0.609385 71.2733 0.499894 70.71 0.5ZM58.7346 10.9325C58.6855 10.9325 58.6371 10.9325 58.5888 10.9325C58.5405 10.9325 58.4947 10.939 58.4496 10.9438C57.7507 11.0133 57.1027 11.3365 56.6312 11.8507C56.1596 12.3649 55.8981 13.0337 55.8971 13.7274V19.3618C55.8905 19.5694 55.8022 19.7663 55.6512 19.9109C55.5001 20.0554 55.298 20.1362 55.0877 20.1362C54.8774 20.1362 54.6753 20.0554 54.5242 19.9109C54.3731 19.7663 54.2849 19.5694 54.2782 19.3618V13.7274C54.2794 13.1335 54.4022 12.5459 54.6391 12C54.8761 11.4541 55.2224 10.9611 55.6572 10.5508C55.69 10.5192 55.7219 10.4885 55.7563 10.4602C55.7907 10.4319 55.8243 10.4012 55.8578 10.3721C55.9193 10.3211 55.9807 10.271 56.0446 10.2233C56.1264 10.1642 56.2083 10.1052 56.2902 10.051C55.6929 9.55669 55.2641 8.89281 55.062 8.1495C54.8599 7.40619 54.8943 6.61947 55.1606 5.89616C55.4269 5.17284 55.9121 4.54799 56.5504 4.10643C57.1887 3.66488 57.9491 3.42802 58.7284 3.42802C59.5078 3.42802 60.2682 3.66488 60.9065 4.10643C61.5448 4.54799 62.03 5.17284 62.2963 5.89616C62.5626 6.61947 62.597 7.40619 62.3949 8.1495C62.1928 8.89281 61.764 9.55669 61.1667 10.051L61.1536 10.0607C60.4738 10.6209 59.6167 10.928 58.7313 10.9285L58.7346 10.9325ZM70.4078 19.365C70.4078 19.577 70.3225 19.7802 70.1708 19.93C70.0191 20.0799 69.8133 20.1641 69.5987 20.1641C69.3841 20.1641 69.1784 20.0799 69.0266 19.93C68.8749 19.7802 68.7897 19.577 68.7897 19.365V13.7274C68.7885 12.994 68.4964 12.2901 67.9759 11.7669C67.4554 11.2436 66.748 10.9426 66.0055 10.9285C64.4209 10.9026 63.123 12.2362 63.123 13.8027V19.3618C63.1163 19.5694 63.0281 19.7663 62.877 19.9109C62.7259 20.0554 62.5239 20.1362 62.3135 20.1362C62.1032 20.1362 61.9011 20.0554 61.75 19.9109C61.599 19.7663 61.5107 19.5694 61.5041 19.3618V13.7274C61.5041 13.6822 61.5041 13.6361 61.5041 13.5916C61.5041 13.5342 61.4967 13.4775 61.4901 13.4217C61.4879 13.3908 61.4841 13.3601 61.4787 13.3296C61.4705 13.2729 61.4623 13.2204 61.4508 13.1678C61.4394 13.1152 61.4312 13.0813 61.4205 13.0384C61.4099 12.9956 61.3992 12.9575 61.3861 12.9187C61.3841 12.9099 61.3814 12.9012 61.3779 12.8928C61.3681 12.8589 61.3575 12.8241 61.3444 12.7909C61.3133 12.7101 61.2797 12.6292 61.242 12.5483C61.2305 12.5241 61.2199 12.499 61.2068 12.4747C61.1937 12.4505 61.1773 12.4206 61.1642 12.3939C61.1511 12.3672 61.1241 12.3251 61.1044 12.2936C61.0848 12.262 61.0578 12.2184 61.0316 12.1812C61.0316 12.1812 61.0316 12.1812 61.0316 12.1755C61.0127 12.1448 60.9914 12.1157 60.9701 12.0874C61.454 11.8664 61.9023 11.5765 62.3008 11.2269C62.3057 11.2228 62.3107 11.2196 62.3156 11.2147C62.7357 10.6194 63.2987 10.136 63.9542 9.80791C64.6096 9.4798 65.3372 9.31714 66.0718 9.33447C68.5063 9.39189 70.4176 11.4274 70.4176 13.831L70.4078 19.365Z" fill="#1F6837"/>
<path d="M0.529818 22.4877C0.667379 22.4875 0.799269 22.4335 0.896693 22.3376C0.994117 22.2417 1.04916 22.1116 1.04981 21.9757V19.0918C1.04981 18.0987 1.14971 17.345 1.34788 16.8517C1.54111 16.3855 1.86531 15.9837 2.28223 15.6936C2.67785 15.4136 3.1524 15.2631 3.63912 15.2634C4.02204 15.2545 4.39819 15.3639 4.71514 15.5763C5.01377 15.7799 5.24053 16.0706 5.36369 16.4077C5.47916 16.7603 5.53812 17.4251 5.53812 18.3826V21.9757C5.53812 22.1132 5.59342 22.2451 5.69186 22.3423C5.7903 22.4395 5.92381 22.4941 6.06302 22.4941C6.20224 22.4941 6.33575 22.4395 6.43419 22.3423C6.53262 22.2451 6.58793 22.1132 6.58793 21.9757V19.3482C6.58793 18.1748 6.6821 17.366 6.87372 16.8808C7.05535 16.4047 7.37776 15.9936 7.79906 15.7009C8.20388 15.415 8.68941 15.262 9.18707 15.2634C9.56657 15.2583 9.93972 15.3599 10.2631 15.5561C10.5511 15.7463 10.7739 16.0185 10.9018 16.3365C11.0181 16.6697 11.0771 17.2657 11.0771 18.1068V21.9668C11.0771 22.1069 11.1334 22.2412 11.2337 22.3403C11.334 22.4393 11.47 22.4949 11.6118 22.4949C11.7536 22.4949 11.8896 22.4393 11.9899 22.3403C12.0902 22.2412 12.1465 22.1069 12.1465 21.9668V18.1044C12.1465 17.1153 12.0417 16.3576 11.8337 15.8513C11.6447 15.3743 11.3124 14.9659 10.8813 14.6811C10.4414 14.3947 9.92435 14.2458 9.39752 14.2541C8.79836 14.2544 8.21235 14.4276 7.71144 14.7522C7.21581 15.0669 6.80497 15.4956 6.51423 16.0017L6.40941 16.178L6.33489 15.9872C6.21955 15.6626 6.0459 15.3613 5.82227 15.0976C5.58477 14.832 5.29054 14.6218 4.9608 14.4821C4.60529 14.3351 4.22433 14.2574 3.83893 14.2533C3.24884 14.2561 2.67132 14.4219 2.17168 14.732C1.80607 14.9648 1.48641 15.2613 1.22833 15.6071L1.04981 15.8351V14.9843C1.04981 14.8469 0.994508 14.715 0.896069 14.6178C0.79763 14.5206 0.664119 14.466 0.524905 14.466C0.385692 14.466 0.25218 14.5206 0.153741 14.6178C0.0553026 14.715 0 14.8469 0 14.9843V21.9757C0.00194253 22.1129 0.0587504 22.2437 0.158018 22.3396C0.257285 22.4355 0.390948 22.4887 0.529818 22.4877Z" fill="#1F6837"/>
<path d="M15.8477 22.2113C16.3783 22.5284 17.0473 22.6893 17.8359 22.6893C18.6245 22.6893 19.2911 22.5276 19.8168 22.2113C20.3402 21.8976 20.755 21.4346 21.0066 20.8834C21.2671 20.3262 21.3989 19.4892 21.3989 18.3966V15.0396C21.3989 14.8835 21.3361 14.7337 21.2243 14.6233C21.1125 14.5129 20.9609 14.4509 20.8027 14.4509H20.7815C20.6233 14.4509 20.4717 14.5129 20.3599 14.6233C20.2481 14.7337 20.1853 14.8835 20.1853 15.0396V18.2082C20.1853 19.1786 20.1354 19.82 20.0355 20.1143C19.8928 20.5357 19.6137 20.8989 19.2411 21.1479C18.8587 21.4091 18.3846 21.5417 17.8318 21.5417C17.324 21.5551 16.8243 21.4139 16.4004 21.1374C16.0094 20.8759 15.7237 20.4873 15.593 20.0391C15.498 19.7108 15.4497 19.0945 15.4497 18.209V15.0396C15.4527 14.9605 15.4395 14.8816 15.4109 14.8077C15.3823 14.7338 15.3389 14.6663 15.2832 14.6093C15.2276 14.5523 15.1609 14.5069 15.0872 14.476C15.0134 14.445 14.9341 14.429 14.854 14.429C14.7738 14.429 14.6945 14.445 14.6207 14.476C14.547 14.5069 14.4803 14.5523 14.4247 14.6093C14.3691 14.6663 14.3257 14.7338 14.2971 14.8077C14.2685 14.8816 14.2553 14.9605 14.2582 15.0396V18.3246C14.2582 19.4504 14.3901 20.3076 14.6505 20.8729C14.9013 21.4297 15.3192 21.8969 15.8477 22.2113Z" fill="#1F6837"/>
<path d="M24.1073 22.4888C24.2651 22.4886 24.4164 22.4266 24.528 22.3164C24.6396 22.2062 24.7024 22.0567 24.7026 21.9009V19.52C24.7026 18.4937 24.7509 17.7796 24.8468 17.3987C24.9947 16.8244 25.3246 16.3117 25.7885 15.9357C26.2374 15.5532 26.8112 15.3435 27.4041 15.3454C27.9249 15.3454 28.3516 15.4723 28.6718 15.7222C28.9919 15.9721 29.2122 16.3522 29.3269 16.8544C29.4014 17.1512 29.4382 17.7554 29.4382 18.6506V21.9001C29.444 22.0523 29.5092 22.1965 29.6203 22.3022C29.7314 22.4079 29.8797 22.467 30.034 22.467C30.1883 22.467 30.3365 22.4079 30.4476 22.3022C30.5587 22.1965 30.624 22.0523 30.6297 21.9001V18.3546C30.6297 17.2782 30.5167 16.4711 30.294 15.9568C30.0766 15.4474 29.7098 15.0139 29.2409 14.7121C28.7552 14.402 28.1872 14.2413 27.6089 14.2504C27.0275 14.2465 26.4545 14.3878 25.9432 14.6612C25.4646 14.9289 25.0433 15.286 24.7026 15.7125V15.0453C24.7056 14.9662 24.6924 14.8874 24.6638 14.8134C24.6352 14.7395 24.5918 14.672 24.5362 14.615C24.4806 14.558 24.4139 14.5127 24.3401 14.4817C24.2664 14.4507 24.187 14.4348 24.1069 14.4348C24.0267 14.4348 23.9474 14.4507 23.8737 14.4817C23.7999 14.5127 23.7332 14.558 23.6776 14.615C23.622 14.672 23.5786 14.7395 23.55 14.8134C23.5214 14.8874 23.5082 14.9662 23.5112 15.0453V21.9049C23.5124 22.0602 23.5758 22.2087 23.6875 22.3181C23.7991 22.4274 23.95 22.4888 24.1073 22.4888Z" fill="#1F6837"/>
<path d="M36.4226 14.4551C36.2811 14.4551 36.1454 14.5105 36.0453 14.6092C35.9452 14.7079 35.8889 14.8419 35.8887 14.9816V21.9608C35.8887 22.1015 35.9453 22.2365 36.046 22.336C36.1468 22.4354 36.2834 22.4913 36.4259 22.4913H36.543C36.6854 22.4913 36.8221 22.4354 36.9228 22.336C37.0236 22.2365 37.0801 22.1015 37.0801 21.9608V14.9816C37.0799 14.842 37.0237 14.7082 36.9238 14.6095C36.8238 14.5108 36.6884 14.4553 36.5471 14.4551H36.4226Z" fill="#1F6837"/>
<path d="M44.5615 21.427H40.8004L45.079 14.8149C45.1021 14.7792 45.115 14.7381 45.1164 14.6958C45.1178 14.6535 45.1077 14.6116 45.0871 14.5745C45.0665 14.5374 45.0362 14.5064 44.9994 14.4848C44.9625 14.4632 44.9204 14.4518 44.8776 14.4518H39.7587C39.6248 14.4622 39.4997 14.5221 39.4085 14.6195C39.3173 14.717 39.2666 14.8448 39.2666 14.9775C39.2666 15.1102 39.3173 15.238 39.4085 15.3354C39.4997 15.4329 39.6248 15.4928 39.7587 15.5032H43.2415L38.9661 22.1233C38.9432 22.159 38.9305 22.2001 38.9292 22.2422C38.9279 22.2844 38.938 22.3262 38.9586 22.3632C38.9792 22.4002 39.0094 22.431 39.0461 22.4526C39.0829 22.4741 39.1248 22.4855 39.1675 22.4856H44.5615C44.704 22.4856 44.8406 22.4298 44.9413 22.3303C45.0421 22.2308 45.0987 22.0958 45.0987 21.9551C45.0987 21.8144 45.0421 21.6795 44.9413 21.58C44.8406 21.4805 44.704 21.4246 44.5615 21.4246V21.427Z" fill="#1F6837"/>
<path d="M33.3192 13.619C33.4922 13.6179 33.6609 13.5662 33.8042 13.4705C33.9474 13.3747 34.0587 13.2392 34.124 13.081C34.1894 12.9229 34.2058 12.7492 34.1712 12.5818C34.1367 12.4144 34.0527 12.2609 33.9299 12.1406C33.8071 12.0204 33.6509 11.9387 33.4812 11.906C33.3114 11.8733 33.1357 11.891 32.9761 11.9568C32.8165 12.0226 32.6802 12.1337 32.5845 12.276C32.4887 12.4182 32.4378 12.5853 32.4381 12.7561C32.4392 12.9859 32.5326 13.2059 32.6978 13.3677C32.863 13.5295 33.0866 13.6199 33.3192 13.619Z" fill="#1F6837"/>
<path d="M36.4866 13.619C36.6595 13.6179 36.8283 13.5662 36.9715 13.4705C37.1148 13.3747 37.2261 13.2392 37.2914 13.081C37.3567 12.9229 37.3732 12.7492 37.3386 12.5818C37.304 12.4144 37.2201 12.2609 37.0972 12.1406C36.9744 12.0204 36.8183 11.9387 36.6485 11.906C36.4788 11.8733 36.303 11.891 36.1434 11.9568C35.9838 12.0226 35.8476 12.1337 35.7518 12.276C35.6561 12.4182 35.6052 12.5853 35.6055 12.7561C35.6066 12.9859 35.7 13.2059 35.8652 13.3677C36.0304 13.5295 36.2539 13.6199 36.4866 13.619Z" fill="#1F6837"/>
<path d="M44.5522 5.05839C44.364 4.83066 44.1226 4.6514 43.8488 4.53596C43.5303 4.39749 43.1846 4.33064 42.8367 4.34025C42.5105 4.33666 42.1873 4.40143 41.8884 4.5303C41.6033 4.64966 41.3461 4.82555 41.1326 5.04707C40.9122 5.27865 40.7419 5.55218 40.6322 5.85094C40.5085 6.17602 40.4474 6.52106 40.4521 6.86831C40.4521 7.89053 39.9812 8.10323 39.5857 8.10323H32.2722C31.8358 8.10323 31.5213 7.98192 31.3469 7.74658C31.1729 7.49538 31.0867 7.19497 31.1012 6.89095V5.30586C31.1012 5.15572 31.0408 5.01173 30.9333 4.90556C30.8258 4.7994 30.68 4.73975 30.528 4.73975C30.2316 4.73975 29.9867 4.9573 29.9548 5.30586V7.36729C29.962 7.54377 29.9261 7.71937 29.85 7.87921C29.7918 7.98192 29.6698 8.10323 29.3906 8.10323H23.226C23.1357 8.10468 23.0461 8.08752 22.963 8.05285C22.8798 8.01818 22.8048 7.96675 22.7429 7.90186C22.6235 7.77016 22.5289 7.61843 22.4636 7.45383C22.3948 7.27692 22.3425 7.09421 22.3072 6.90794C22.272 6.7187 22.2434 6.54078 22.2253 6.37418C22.201 6.12466 22.1505 5.8783 22.0747 5.63905C22.0007 5.39383 21.8822 5.16392 21.725 4.96054C21.5602 4.75882 21.3543 4.59352 21.1207 4.4753C20.8343 4.34005 20.5191 4.27486 20.2019 4.28525C20.028 4.28477 19.8545 4.3002 19.6835 4.33135C19.4976 4.36047 19.3175 4.40009 19.1431 4.44053C19.0792 4.45751 19.0211 4.46964 18.9514 4.49229C18.9275 4.49591 18.9039 4.50159 18.881 4.50927C18.7706 4.54374 18.6741 4.61183 18.6052 4.70378C18.5364 4.79574 18.4988 4.90684 18.4978 5.02119C18.5006 5.16634 18.5614 5.3045 18.6669 5.40556C18.7725 5.50661 18.9142 5.56234 19.0612 5.56061C19.0964 5.56032 19.1315 5.55652 19.166 5.54929L19.2946 5.52098C19.5044 5.47273 19.7187 5.44563 19.9341 5.44011C20.2166 5.42881 20.4923 5.52789 20.7014 5.71588C20.8938 5.89946 21.0101 6.20111 21.0568 6.64106C21.075 6.92008 21.1197 7.1968 21.1903 7.46757C21.2379 7.63071 21.3021 7.78867 21.3819 7.93906L21.4752 8.10565H4.5964C4.14274 8.10565 3.82337 7.98435 3.64813 7.74901C3.47842 7.49584 3.39257 7.19684 3.40247 6.89338V5.30829C3.40247 5.15815 3.34207 5.01416 3.23457 4.90799C3.12707 4.80182 2.98127 4.74218 2.82925 4.74218C2.53854 4.74218 2.28796 4.95973 2.25603 5.30829L2.26176 5.37703V9.07612C2.26176 9.53547 2.19789 9.87433 2.06932 10.1097C1.90554 10.4089 1.22096 10.5067 0.912237 10.5067C0.818897 10.5059 0.725675 10.5 0.632997 10.489H0.569944C0.439047 10.4894 0.312259 10.5341 0.210659 10.6157C0.109058 10.6972 0.0387649 10.8106 0.0114643 10.937L0 11.0518C0.00105413 11.1888 0.0523298 11.3207 0.144327 11.4231C0.236324 11.5256 0.362806 11.5916 0.500339 11.609C0.528937 11.6144 0.558081 11.6163 0.58714 11.6147C0.69353 11.625 0.800447 11.6291 0.907324 11.6268C1.27418 11.6268 1.91373 11.5629 2.17496 11.4424C2.43462 11.3222 2.66483 11.1478 2.84972 10.9313C3.03799 10.7029 3.17729 10.439 3.25916 10.1558C3.35435 9.84095 3.40127 9.51383 3.39837 9.1853V8.55935L3.60227 8.78902C3.72859 8.925 3.8783 9.03781 4.04447 9.12222C4.22413 9.21389 4.42366 9.26107 4.62588 9.2597H20.8824C21.047 9.2591 21.2102 9.23008 21.3647 9.17397C21.5162 9.12222 21.6554 8.98959 21.7831 8.78902L21.8593 8.67419L21.9584 8.76557C22.1347 8.91454 22.3351 9.03319 22.5513 9.11656C22.7818 9.21104 23.0289 9.25968 23.2784 9.2597H29.4397C29.7268 9.26783 30.0105 9.19639 30.2586 9.05348C30.4769 8.91901 30.6603 8.73593 30.7942 8.51891L30.8924 8.34665L30.9972 8.51891C31.1139 8.7197 31.2701 8.89541 31.4566 9.03568C31.6491 9.1853 31.9103 9.2597 32.2362 9.2597H39.666C39.8865 9.26114 40.1027 9.19933 40.2883 9.08178C40.4973 8.9448 40.6578 8.74693 40.7477 8.51567L40.823 8.33776L40.9459 8.49303C41.06 8.64273 41.1983 8.77279 41.3553 8.87798C41.4971 8.97975 41.654 9.05914 41.8204 9.11332C41.9817 9.17212 42.1498 9.2107 42.3208 9.22816C42.4925 9.24887 42.6654 9.25833 42.8383 9.25646C43.2008 9.26711 43.5614 9.20264 43.8971 9.06722C44.1679 8.95189 44.4085 8.77709 44.6006 8.55611C44.785 8.3403 44.92 8.08757 44.9961 7.81532C45.0775 7.53147 45.1183 7.23775 45.1173 6.94271C45.1211 6.58382 45.0742 6.22616 44.9781 5.88005C44.8947 5.5802 44.7498 5.3005 44.5522 5.05839ZM43.6515 7.71261C43.4713 7.94795 43.1921 8.06279 42.8146 8.06279C42.4133 8.06279 42.1218 7.94229 41.9474 7.70695C41.7759 7.46473 41.6865 7.17513 41.6919 6.87963C41.6887 6.68748 41.7181 6.49615 41.7787 6.31353C41.8344 6.15674 41.9175 6.01083 42.0243 5.88248C42.1218 5.76713 42.2425 5.67319 42.3789 5.6067C42.5157 5.54464 42.6648 5.51342 42.8154 5.51532C42.9601 5.51413 43.1031 5.54538 43.2338 5.6067C43.3683 5.67357 43.4872 5.76751 43.5827 5.88248C43.6908 6.0108 43.7755 6.15664 43.8333 6.31353C43.9006 6.49475 43.9339 6.6866 43.9315 6.87963C43.9399 7.18126 43.8405 7.47616 43.6506 7.71261H43.6515Z" fill="#1F6837"/>
<path d="M2.83007 2.09342C2.65715 2.09437 2.48839 2.14589 2.34508 2.24147C2.20177 2.33704 2.09033 2.4724 2.02483 2.63045C1.95933 2.7885 1.94269 2.96218 1.97702 3.12956C2.01135 3.29694 2.09511 3.45052 2.21772 3.57094C2.34034 3.69136 2.49633 3.77322 2.666 3.80619C2.83567 3.83915 3.01143 3.82175 3.1711 3.75618C3.33077 3.6906 3.4672 3.5798 3.56317 3.43773C3.65915 3.29567 3.71037 3.12872 3.71037 2.95794C3.7095 2.72808 3.61632 2.50794 3.45128 2.34586C3.28624 2.18378 3.06282 2.09299 2.83007 2.09342Z" fill="#1F6837"/>
<path d="M29.5963 2.95794C29.5952 3.13032 29.6459 3.29915 29.7421 3.44301C29.8383 3.58687 29.9755 3.69928 30.1365 3.76599C30.2974 3.8327 30.4748 3.85069 30.6461 3.81769C30.8174 3.78469 30.975 3.70219 31.0987 3.58064C31.2225 3.45909 31.3069 3.30397 31.3413 3.13497C31.3757 2.96596 31.3584 2.79068 31.2918 2.63136C31.2252 2.47204 31.1121 2.33585 30.967 2.24008C30.8218 2.14431 30.6512 2.09326 30.4766 2.09342C30.3613 2.09299 30.2471 2.11503 30.1404 2.15827C30.0337 2.2015 29.9367 2.26509 29.8549 2.34539C29.7732 2.42569 29.7082 2.52112 29.6639 2.62623C29.6195 2.73134 29.5965 2.84406 29.5963 2.95794Z" fill="#1F6837"/>
<path d="M19.6387 11.0268C19.6374 11.1992 19.688 11.3681 19.7841 11.5121C19.8801 11.6561 20.0173 11.7686 20.1783 11.8354C20.3392 11.9023 20.5166 11.9204 20.688 11.8875C20.8593 11.8546 21.0169 11.7721 21.1408 11.6506C21.2646 11.5291 21.3492 11.374 21.3836 11.2049C21.418 11.0359 21.4009 10.8606 21.3342 10.7012C21.2676 10.5419 21.1546 10.4056 21.0094 10.3098C20.8643 10.214 20.6936 10.1629 20.519 10.1631C20.4038 10.1627 20.2896 10.1847 20.1829 10.2279C20.0763 10.271 19.9794 10.3346 19.8976 10.4148C19.8158 10.495 19.7509 10.5903 19.7065 10.6953C19.662 10.8004 19.639 10.913 19.6387 11.0268Z" fill="#1F6837"/>
<path d="M31.8189 24.9476C32.0924 25.0342 32.3776 25.0795 32.6648 25.0818C33.1144 25.0818 33.4689 24.9201 33.7203 24.5966C33.9717 24.2731 33.9079 23.7814 33.9079 23.1109V14.9809C33.9094 14.9114 33.8967 14.8424 33.8705 14.7779C33.8443 14.7134 33.8052 14.6548 33.7554 14.6057C33.7057 14.5566 33.6464 14.5179 33.5811 14.4921C33.5158 14.4662 33.4459 14.4537 33.3756 14.4552H33.2429C33.1728 14.4546 33.1033 14.4677 33.0383 14.4939C32.9734 14.5201 32.9144 14.5587 32.8648 14.6077C32.8152 14.6566 32.7759 14.7148 32.7493 14.7789C32.7227 14.843 32.7093 14.9116 32.7098 14.9809V22.8117C32.7098 22.8497 32.7098 22.9031 32.7098 22.9678C32.7098 23.3552 32.7098 23.5485 32.641 23.6657C32.4961 23.9245 32.0506 23.9367 31.9245 23.9367C31.7953 23.9347 31.6702 23.9817 31.575 24.0681C31.4798 24.1544 31.4217 24.2735 31.4127 24.4009V24.5036C31.4243 24.6109 31.4702 24.7119 31.5439 24.7917C31.6175 24.8716 31.715 24.9262 31.8222 24.9476H31.8189Z" fill="#1F6837"/>
</g>
<defs>
<clipPath id="clip0_153_390">
<rect width="75" height="25" fill="white" transform="translate(0 0.5)"/>
</clipPath>
</defs>
</svg>
